<svg xmlns="http://www.w3.org/2000/svg" width="512" height="512"><path d="M330.667 122.667c23.467 0 42.667-19.2 42.667-42.667s-19.2-42.667-42.667-42.667S288 56.533 288 80s19.2 42.667 42.667 42.667zm-224 138.666C48 261.333 0 309.333 0 368s48 106.667 106.667 106.667 106.667-48 106.667-106.667-48.001-106.667-106.667-106.667zm0 181.334C65.067 442.667 32 409.6 32 368s33.067-74.667 74.667-74.667S181.334 326.4 181.334 368s-33.067 74.667-74.667 74.667z" data-original="#000000" class="active-path" data-old_color="#000000" fill="#FFF"/><path d="M404.267 238.933v-42.667c-32 0-58.667-11.733-77.867-30.933L284.8 124.8c-6.4-7.467-17.067-12.8-28.8-12.8s-22.4 4.267-29.867 12.8l-58.667 58.667c-7.467 7.467-12.8 18.133-12.8 29.867s5.333 22.4 12.8 30.933l67.2 59.733v106.667h42.667V277.333L230.4 230.4l50.133-51.2 16 16c26.667 27.733 64 43.733 107.734 43.733z" data-original="#000000" class="active-path" data-old_color="#000000" fill="#FFF"/><path d="M405.333 261.333c-58.667 0-106.667 48-106.667 106.667s48 106.667 106.667 106.667S512 426.667 512 368s-48-106.667-106.667-106.667zm0 181.334c-41.6 0-74.667-33.067-74.667-74.667s33.067-74.667 74.667-74.667S480 326.4 480 368s-33.067 74.667-74.667 74.667z" data-original="#000000" class="active-path" data-old_color="#000000" fill="#FFF"/></svg>