<svg xmlns="http://www.w3.org/2000/svg" viewBox="0 0 440.151 440.151" width="512" height="512"><path d="M47.864 86.749l98.012 37.197-91.516 78.255c-6.005 5.124-7.41 14.035-2.973 20.813 4.814 7.354 14.68 9.413 22.033 4.599l75.031-49.123s-13.668 41.7-14.765 44.514c-5.019 12.871 1.347 27.374 14.219 32.393l91.474 35.666 55.544 69.561c6.641 8.295 18.734 9.93 27.327 3.537 8.785-6.535 10.609-18.955 4.074-27.74l-50.64-68.072 15.581 1.844 69.977 41.217c9.133 5.363 20.985 2.613 26.753-6.381 5.911-9.219 3.228-21.48-5.989-27.391l-72.493-46.479a19.738 19.738 0 00-6.974-2.744l-1.083-.197-69.863-12.684s32.531-96.01-5.286-113.515L60.92 49.315c-9.956-3.15-20.81 1.974-24.561 11.858-3.886 10.24 1.265 21.69 11.505 25.576zm177.472 7.681a48.842 48.842 0 0017.868 7.384l.063.013c15.79 3.063 32.396-2.02 43.783-13.378 11.549-11.527 16.62-28.571 13.254-44.541-3.277-15.555-14.274-28.871-28.958-34.979-15.025-6.251-32.545-4.517-46.039 4.578-13.496 9.094-21.675 24.682-21.523 40.957.154 15.901 8.368 31.091 21.552 39.966zm214.803 316.32a5.5 5.5 0 00-5.5-5.5c-4.75 0-6.878-.747-9.584-1.696-3.328-1.17-7.099-2.495-14.273-2.495-7.176 0-10.948 1.325-14.285 2.498-2.695.946-4.824 1.693-9.575 1.693-4.752 0-6.88-.747-9.583-1.696-3.328-1.17-7.099-2.495-14.273-2.495s-10.944 1.326-14.279 2.498c-2.695.946-4.823 1.693-9.575 1.693s-6.88-.747-9.583-1.696c-3.328-1.17-7.099-2.495-14.272-2.495-7.172 0-10.943 1.325-14.28 2.498-2.694.946-4.822 1.693-9.574 1.693-4.75 0-6.879-.747-9.581-1.696-3.327-1.169-7.097-2.495-14.271-2.495s-10.945 1.326-14.279 2.498c-2.694.946-4.823 1.693-9.572 1.693s-6.876-.747-9.579-1.696c-3.327-1.169-7.097-2.495-14.27-2.495-7.174 0-10.944 1.326-14.279 2.498-2.695.946-4.823 1.693-9.573 1.693-4.749 0-6.876-.747-9.58-1.696-3.326-1.169-7.097-2.495-14.27-2.495-7.174 0-10.944 1.326-14.28 2.498-2.694.946-4.821 1.693-9.572 1.693-4.749 0-6.876-.747-9.58-1.696-3.326-1.169-7.097-2.495-14.271-2.495-7.176 0-10.946 1.326-14.281 2.499-2.694.945-4.822 1.692-9.572 1.692-4.749 0-6.876-.747-9.579-1.696-3.326-1.169-7.095-2.495-14.27-2.495-7.173 0-10.945 1.325-14.282 2.498-2.694.946-4.821 1.693-9.572 1.693-4.749 0-6.876-.747-9.579-1.696-1.736-.61-3.745-1.316-6.411-1.821v-.816a5.5 5.5 0 00-5.5-5.5h-26a5.5 5.5 0 00-5.5 5.5v28.514a5.5 5.5 0 005.5 5.5h429.151a5.5 5.5 0 005.5-5.5l-.012-18.681z" data-original="#000000" class="active-path" data-old_color="#000000" fill="#FFF"/></svg>