<svg xmlns="http://www.w3.org/2000/svg" width="46" height="41"><style/><path id="Forma 1" d="M41.85 2h-13.1c-1.19 0-2.15.96-2.15 2.15v13.07c0 1.19.96 2.15 2.15 2.15h6.27c-.08 3.42-.88 6.16-2.39 8.22-1.19 1.62-2.99 2.97-5.4 4.03a2.15 2.15 0 00-1.06 2.89l1.55 3.26a2.15 2.15 0 002.8 1.05c2.85-1.23 5.26-2.78 7.23-4.68 2.39-2.3 4.03-4.91 4.92-7.82.89-2.9 1.33-6.87 1.33-11.9V4.15C44 2.96 43.03 2 41.85 2zM6.57 38.81c2.82-1.22 5.21-2.78 7.19-4.67 2.41-2.3 4.06-4.9 4.95-7.79.89-2.88 1.33-6.86 1.33-11.93V4.15c0-1.19-.96-2.15-2.15-2.15H4.79c-1.19 0-2.15.96-2.15 2.15v13.07c0 1.19.96 2.15 2.15 2.15h6.27c-.08 3.42-.88 6.16-2.39 8.22-1.18 1.62-2.99 2.97-5.39 4.03a2.145 2.145 0 00-1.07 2.89l1.54 3.25c.5 1.05 1.75 1.52 2.82 1.05z" fill="#ffb700"/></svg>