<svg xmlns="http://www.w3.org/2000/svg" viewBox="0 0 460.752 460.752" width="512" height="512" class="hovered-paths"><path d="M322.622 0c-32.641 0-60.784 69.041-73.724 153.974l-23.651 23.712-2.003-15.252c-.728-20.867-17.982-37.651-38.998-37.651H96.454c-21.409 0-38.914 17.417-39.021 38.826l-.609 121.14c-.046 9.107 7.299 16.526 16.406 16.572h.084c8.918-.001 16.441-7.229 16.487-16.406l.608-121.14a3.271 3.271 0 016.543.017v67.07h87.341V163.79a2.999 2.999 0 015.995-.016c.007 1.491-.369-1.813 6.621 51.425a16.489 16.489 0 0028.023 9.498l18.098-18.145c-1.123 15.619-1.716 31.399-1.716 47.054 0 122.956 36.402 207.145 81.305 207.145s81.305-84.188 81.305-207.145S367.526 0 322.622 0z" data-original="#000000" class="hovered-path active-path" data-old_color="#000000" fill="#FFF"/><path d="M96.962 440.965c0 10.928 8.859 19.787 19.787 19.787s19.787-8.859 19.787-19.787v-97.84H96.962v97.84zm48.118 0c0 10.928 8.859 19.787 19.787 19.787 10.928 0 19.787-8.859 19.787-19.787v-97.84H145.08v97.84z" data-original="#000000" class="hovered-path active-path" data-old_color="#000000" fill="#FFF"/><circle cx="140.804" cy="79.716" r="34.174" data-original="#000000" class="hovered-path active-path" data-old_color="#000000" fill="#FFF"/><path d="M185.868 271.704H95.381l-2.996 49.438c-.2 3.301 2.323 6.451 6.202 6.451h32.605a6.082 6.082 0 005.938-4.765l3.494-15.739 2.412 15.364a6.083 6.083 0 006.01 5.139h33.616c3.859 0 6.403-3.132 6.202-6.451l-2.996-49.437zm-88.914-25.96l-.852 14.054h89.045l-.852-14.054z" data-original="#000000" class="hovered-path active-path" data-old_color="#000000" fill="#FFF"/></svg>