<svg xmlns="http://www.w3.org/2000/svg" viewBox="0 0 60 60" width="60" height="60">
	<style>
		tspan { white-space:pre }
		.shp0 { fill: #26cb15 } 
		.shp1 { fill: #ffffff } 
	</style>
	<path id="Rectangle 22" class="shp0" d="M2 61L2 1L62 1" />
	<path id="Layer" class="shp1" d="M18 24.27L22.15 26.78C22.91 27.24 23.84 26.56 23.64 25.7L22.54 20.98L26.21 17.8C26.88 17.22 26.52 16.12 25.64 16.05L20.81 15.64L18.92 11.18C18.58 10.37 17.42 10.37 17.08 11.18L15.19 15.63L10.36 16.04C9.48 16.11 9.12 17.21 9.79 17.79L13.46 20.97L12.36 25.69C12.16 26.55 13.09 27.23 13.85 26.77L18 24.27Z" />
</svg>