<svg xmlns="http://www.w3.org/2000/svg" viewBox="0 0 46 41" width="46" height="41">
	<style>
		tspan { white-space:pre }
		.shp0 { fill: #ffb700 } 
	</style>
	<path id="Forma 1" class="shp0" d="M41.85 2L28.75 2C27.56 2 26.6 2.96 26.6 4.15L26.6 17.22C26.6 18.41 27.56 19.37 28.75 19.37L35.02 19.37C34.94 22.79 34.14 25.53 32.63 27.59C31.44 29.21 29.64 30.56 27.23 31.62C26.13 32.11 25.65 33.41 26.17 34.51L27.72 37.77C28.22 38.82 29.45 39.28 30.52 38.82C33.37 37.59 35.78 36.04 37.75 34.14C40.14 31.84 41.78 29.23 42.67 26.32C43.56 23.42 44 19.45 44 14.42L44 4.15C44 2.96 43.03 2 41.85 2ZM6.57 38.81C9.39 37.59 11.78 36.03 13.76 34.14C16.17 31.84 17.82 29.24 18.71 26.35C19.6 23.47 20.04 19.49 20.04 14.42L20.04 4.15C20.04 2.96 19.08 2 17.89 2L4.79 2C3.6 2 2.64 2.96 2.64 4.15L2.64 17.22C2.64 18.41 3.6 19.37 4.79 19.37L11.06 19.37C10.98 22.79 10.18 25.53 8.67 27.59C7.49 29.21 5.68 30.56 3.28 31.62C2.17 32.11 1.69 33.41 2.21 34.51L3.75 37.76C4.25 38.81 5.5 39.28 6.57 38.81Z" />
</svg>