<?xml version="1.0"?>
<svg xmlns="http://www.w3.org/2000/svg" xmlns:xlink="http://www.w3.org/1999/xlink" version="1.1" id="Capa_1" x="0px" y="0px" viewBox="0 0 460.752 460.752" style="enable-background:new 0 0 460.752 460.752;" xml:space="preserve" width="512px" height="512px" class="hovered-paths"><g><g>
	<path d="M322.622,0c-32.641,0-60.784,69.041-73.724,153.974l-23.651,23.712l-2.003-15.252   c-0.728-20.867-17.982-37.651-38.998-37.651c-11.106,0-76.947,0-87.792,0c-21.409,0-38.914,17.417-39.021,38.826l-0.609,121.14   c-0.046,9.107,7.299,16.526,16.406,16.572c0.029,0,0.056,0,0.084,0c8.918-0.001,16.441-7.229,16.487-16.406   c0.362-72.025,0.244-48.505,0.608-121.14c0.009-1.804,1.477-3.26,3.28-3.255c1.804,0.005,3.263,1.468,3.263,3.272v67.07h87.341   V163.79c0-1.652,1.337-2.993,2.99-2.998c1.652-0.004,2.997,1.329,3.005,2.982c0.007,1.491-0.369-1.813,6.621,51.425   c0.818,6.23,5.105,11.453,11.056,13.47c5.945,2.016,12.527,0.481,16.967-3.972l18.098-18.145   c-1.123,15.619-1.716,31.399-1.716,47.054c0,122.956,36.402,207.145,81.305,207.145s81.305-84.188,81.305-207.145   S367.526,0,322.622,0z" data-original="#000000" class="hovered-path active-path" data-old_color="#000000" fill="#FFFFFF"/>
	<path d="M96.962,440.965c0,10.928,8.859,19.787,19.787,19.787s19.787-8.859,19.787-19.787v-97.84H96.962V440.965z" data-original="#000000" class="hovered-path active-path" data-old_color="#000000" fill="#FFFFFF"/>
	<path d="M145.08,440.965c0,10.928,8.859,19.787,19.787,19.787c10.928,0,19.787-8.859,19.787-19.787v-97.84H145.08V440.965z" data-original="#000000" class="hovered-path active-path" data-old_color="#000000" fill="#FFFFFF"/>
	<circle cx="140.804" cy="79.716" r="34.174" data-original="#000000" class="hovered-path active-path" data-old_color="#000000" fill="#FFFFFF"/>
	<path d="M185.868,271.704H95.381l-2.996,49.438c-0.2,3.301,2.323,6.451,6.202,6.451h32.605c2.852,0,5.32-1.981,5.938-4.765   l3.494-15.739l2.412,15.364c0.465,2.959,3.014,5.139,6.01,5.139h33.616c3.859,0,6.403-3.132,6.202-6.451L185.868,271.704z" data-original="#000000" class="hovered-path active-path" data-old_color="#000000" fill="#FFFFFF"/>
	<polygon points="96.954,245.744 96.102,259.798 185.147,259.798 184.295,245.744  " data-original="#000000" class="hovered-path active-path" data-old_color="#000000" fill="#FFFFFF"/>
</g></g> </svg>
